HIERARCHY
ROOT Hips
{
  OFFSET -5.22467 104.241 180.716
  CHANNELS 6 Xposition Yposition Zposition Zrotation Xrotation Yrotation
  JOINT RightUpLeg
  {
    OFFSET -8.9458 -8.66707 0.101652
    CHANNELS 3 Zrotation Xrotation Yrotation
    JOINT RightLeg
    {
      OFFSET 0 -44.4227 1.3727
      CHANNELS 3 Zrotation Xrotation Yrotation
      JOINT RightFoot
      {
        OFFSET 0.253549 -42.0924 -1.46059
        CHANNELS 3 Zrotation Xrotation Yrotation
        JOINT RightToes
        {
          OFFSET 0.04 -4.41509 8.4991
          CHANNELS 3 Zrotation Xrotation Yrotation
          End Site
          {
            OFFSET -0.08 -0.137448 9.77979
          }
        }
      }
    }
  }
  JOINT Spine
  {
    OFFSET 0 11.8905 0
    CHANNELS 3 Zrotation Xrotation Yrotation
    JOINT Spine1
    {
      OFFSET 0 25.6574 0.127663
      CHANNELS 3 Zrotation Xrotation Yrotation
      JOINT HEad
      {
        OFFSET 0 8.73416 0.011341
        CHANNELS 3 Zrotation Xrotation Yrotation
        End Site
        {
          OFFSET -0.29 12.7742 2.51395
        }
      }
      JOINT LeftShoulder1
      {
        OFFSET 8.99 -0.362252 -0.22
        CHANNELS 3 Zrotation Xrotation Yrotation
        JOINT LeftArm
        {
          OFFSET 10.2827 -0.00338 0.322123
          CHANNELS 3 Zrotation Xrotation Yrotation
          JOINT LeftForeArm
          {
            OFFSET 32.7669 0.099144 -1.42434
            CHANNELS 3 Zrotation Xrotation Yrotation
            JOINT LeftHand
            {
              OFFSET 27.5643 0.085362 1.02216
              CHANNELS 3 Zrotation Xrotation Yrotation
              End Site
              {
                OFFSET 16.7443 -0.6 1.50291
              }
            }
          }
        }
      }
      JOINT RightShoulder
      {
        OFFSET -8.99 -0.362252 -0.22
        CHANNELS 3 Zrotation Xrotation Yrotation
        JOINT RightArm
        {
          OFFSET -10.2827 -0.00338 0.322123
          CHANNELS 3 Zrotation Xrotation Yrotation
          JOINT RightForeArm
          {
            OFFSET -32.8971 0.099144 -1.42434
            CHANNELS 3 Zrotation Xrotation Yrotation
            JOINT RightHand
            {
              OFFSET -27.4921 0.085362 1.02216
              CHANNELS 3 Zrotation Xrotation Yrotation
              End Site
              {
                OFFSET -16.6312 -0.6 1.50291
              }
            }
          }
        }
      }
    }
  }
  JOINT LeftUpLeg
  {
    OFFSET 8.9458 -8.66707 0.101652
    CHANNELS 3 Zrotation Xrotation Yrotation
    JOINT LeftLeg
    {
      OFFSET 0 -44.4227 1.3727
      CHANNELS 3 Zrotation Xrotation Yrotation
      JOINT LeftFoot
      {
        OFFSET -0.253549 -42.0924 -1.46059
        CHANNELS 3 Zrotation Xrotation Yrotation
        JOINT LeftToes
        {
          OFFSET -0.04 -4.41509 8.4991
          CHANNELS 3 Zrotation Xrotation Yrotation
          End Site
          {
            OFFSET 0.08 -0.047448 9.77979
          }
        }
      }
    }
  }
}
MOTION
Frames:	21
Frame Time:	0.0166667
-2.89649 102.358 8.25172 0.532048 -1.20813 177.594 3.68015 2.1981 -5.23091 0.450175 37.4349 -5.13666 1.13886 -26.7682 -0.00931601 -6.91281 -2.39445 -2.55018 4.6586 2.69143 -0.189696 -0.678473 -8.72618 -0.335839 -3.09133 -5.48396 4.19149 4.96962e-017 0 3.97569e-016 -76.5393 -37.0444 6.77224 -23.9492 14.2241 -12.7591 0.368473 9.90896 -0.00117926 -4.75132 0.292978 3.32214 96.2903 -24.1136 23.1205 14.7248 14.3019 13.477 -0.369625 9.91382 0.00119887 -0.107185 -27.5078 -2.57991 -2.44551 17.2803 10.9454 -3.73267 13.0901 0.578745 13.9292 43.6912 -23.0355 
-3.16044 102.484 6.22385 0.115885 -1.34268 177.559 2.81505 1.81207 -6.10222 -0.476848 39.5239 -4.64869 1.58316 -25.2853 0.0663677 -3.06091 -1.37589 -0.753657 4.53041 2.76428 -0.333055 -1.27403 -9.17095 -0.363245 -2.82654 -5.32421 4.33525 3.47873e-016 1.59028e-015 -0 -76.1858 -37.158 7.04192 -24.0462 14.1915 -12.5912 0.368473 9.90896 -0.00117926 -4.68609 0.300464 3.40864 96.257 -25.0375 21.6811 14.6096 14.1779 12.683 -0.369625 9.91382 0.00119887 -0.634 -27.3342 -3.38421 -3.00736 18.7457 11.2776 -3.96901 12.7363 0.599221 9.52231 37.2229 -17.5153 
-3.4302 102.588 4.17913 -0.226833 -1.43415 177.6 1.9426 0.779744 -7.09804 -1.60324 42.6201 -4.15822 2.04491 -23.4942 0.127108 0.806298 1.01081 0.941517 4.58815 2.79399 -0.486275 -1.89555 -9.4307 -0.388656 -2.5483 -5.41212 4.36273 -9.93923e-017 7.95139e-016 3.97569e-016 -76.0425 -37.1988 6.89468 -24.0183 14.1609 -12.4482 0.368473 9.90896 -0.00117926 -4.76558 0.296779 3.43838 96.4562 -26.0433 20.3104 14.3116 14.0305 11.807 -0.369625 9.91382 0.00119887 -1.14137 -27.112 -3.50029 -3.46713 20.604 10.822 -3.97845 11.1513 0.545438 7.88673 37.0212 -16.1707 
-3.70148 102.701 2.18632 -0.541392 -1.42342 177.648 1.10996 -0.71593 -8.08169 -3.15933 46.2122 -3.34123 2.46517 -21.0094 0.153557 4.29935 3.66339 2.42679 4.6379 2.79734 -0.632601 -2.47543 -9.38907 -0.398407 -2.3072 -5.686 4.37495 4.96962e-016 0 3.97569e-016 -76.1042 -37.1212 6.43736 -23.931 14.1513 -12.4139 0.368473 9.90896 -0.00117926 -4.92789 0.284952 3.38735 96.7246 -26.9893 19.0483 13.9649 13.8758 10.8773 -0.369625 9.91382 0.00119887 -1.63714 -26.6667 -3.33237 -3.79029 22.3503 10.0712 -3.92792 9.17644 0.471165 6.43752 37.9307 -15.3458 
-3.98488 102.844 0.304762 -0.835571 -1.19933 177.653 0.392005 -2.57355 -9.07796 -5.76348 49.8517 -1.54094 2.78502 -16.9875 0.110804 7.37834 5.92617 3.58408 4.51272 2.7844 -0.754113 -2.88363 -8.8322 -0.372935 -2.18125 -6.16135 4.48814 -4.96962e-017 7.95139e-016 3.97569e-016 -76.4724 -36.8833 5.67443 -23.7984 14.1765 -12.5567 0.368473 9.90896 -0.00117926 -5.20524 0.261693 3.21095 96.9842 -27.6965 17.9633 13.6977 13.7344 9.93539 -0.369625 9.91382 0.00119887 -2.13914 -25.7264 -2.91806 -3.87076 23.4723 9.14815 -3.81783 7.63836 0.407389 4.3759 36.8701 -13.4926 
-4.24755 103.001 -1.47131 -1.14198 -0.928985 177.565 -0.196566 -4.75632 -9.61038 -8.78918 53.6241 0.745601 3.00801 -12.8617 0.0459524 8.95312 7.46462 4.11877 4.26019 2.77674 -0.852838 -3.23519 -8.07151 -0.331701 -2.10506 -6.71339 4.64352 -3.47873e-016 1.59028e-015 3.97569e-016 -76.9166 -36.4912 4.77391 -23.7056 14.2334 -12.8514 0.368473 9.90896 -0.00117926 -5.46769 0.237871 2.99151 97.2024 -28.2784 17.0285 13.4595 13.5984 8.97485 -0.369625 9.91382 0.00119887 -2.63731 -24.5871 -2.5626 -3.92584 24.1843 8.48329 -3.67298 6.27555 0.348818 2.91873 35.6858 -12.0637 
-4.45788 103.159 -3.10801 -1.54997 -0.77257 177.281 -0.479765 -7.28622 -9.1339 -11.7298 57.6103 3.55513 3.17154 -9.80643 -0.0107255 7.05389 7.3843 3.36227 3.80147 2.82361 -0.921639 -3.63369 -7.37945 -0.288423 -2.04766 -7.23084 4.81699 -3.47873e-016 7.95139e-016 1.59028e-015 -77.2112 -35.9408 3.95918 -23.7633 14.3426 -13.391 0.368473 9.90896 -0.00117926 -5.59144 0.22442 2.8098 97.3117 -28.7946 16.2436 13.2348 13.4672 8.01029 -0.369625 9.91382 0.00119887 -3.12856 -23.4932 -2.67064 -4.21418 24.4986 8.78076 -3.48665 5.10826 0.300072 3.37817 35.7527 -12.4206 
-4.62281 103.334 -4.66499 -1.89367 -0.639829 176.907 -0.45924 -9.95328 -7.84223 -14.2471 61.4639 5.5685 3.06549 -7.75452 -0.0627679 4.28644 6.72111 2.2814 3.34969 2.85203 -0.970129 -3.98112 -6.65908 -0.240174 -1.98943 -7.68911 5.01899 -3.47873e-016 7.95139e-016 7.95139e-016 -77.4485 -35.2384 3.06626 -23.9065 14.4442 -13.8894 0.368473 9.90896 -0.00117926 -5.58949 0.217926 2.62591 97.306 -29.2342 15.5896 13.0478 13.3398 7.02011 -0.369625 9.91382 0.00119887 -3.48507 -22.3399 -2.92542 -4.57461 24.5273 9.38793 -3.35177 4.11786 0.262581 3.98466 35.6229 -12.8428 
-4.73706 103.554 -6.19097 -2.013 -0.479139 176.487 -0.0889296 -12.5068 -5.43038 -13.9906 65.0362 3.2178 2.29884 -7.3282 -0.102901 2.96911 6.24513 1.7639 3.15993 2.77225 -1.01098 -4.22232 -5.8673 -0.185065 -1.87418 -8.02928 5.28193 3.47873e-016 -3.97569e-016 -0 -77.6098 -34.3914 2.01604 -24.1308 14.4843 -14.0616 0.368473 9.90896 -0.00117926 -5.4246 0.220638 2.45247 97.1772 -29.5623 15.1077 12.915 13.2107 5.93234 -0.369625 9.91382 0.00119887 -3.57924 -21.0578 -3.2109 -4.90822 24.3258 9.9158 -3.41729 3.35381 0.244959 3.09798 33.7563 -11.6842 
-4.80575 103.779 -7.68485 -1.98153 -0.334842 176.104 0.667784 -15.0213 -2.7651 -12.0374 68.0103 -0.67597 1.44425 -7.63408 -0.131968 2.00436 5.87246 1.38136 3.02668 2.68388 -1.02784 -4.33214 -5.11516 -0.133631 -1.78509 -8.24326 5.51453 0 0 -7.95139e-016 -77.7727 -33.3797 0.7922 -24.3799 14.4774 -13.994 0.368473 9.90896 -0.00117926 -5.12374 0.226494 2.21267 96.8521 -29.9082 14.6126 12.8434 13.0918 4.91294 -0.369625 9.91382 0.00119887 -3.46934 -19.783 -3.35693 -5.20334 24.0882 10.2491 -3.50874 2.63206 0.230702 1.97378 31.7258 -10.311 
-4.82533 103.981 -9.15813 -1.77931 -0.244952 175.873 1.71549 -17.5328 -0.699199 -11.2466 70.1367 -1.73616 1.06211 -7.85611 -0.143718 0.967037 5.82435 0.957673 2.82708 2.66652 -1.00127 -4.21367 -4.51767 -0.097858 -1.81961 -8.29432 5.61971 -9.93923e-017 -1.98785e-016 -0 -77.9974 -32.1399 -0.665161 -24.6046 14.4184 -13.6829 0.368473 9.90896 -0.00117926 -4.66652 0.231977 1.82253 96.1815 -30.4065 13.9033 12.8664 12.9982 4.1169 -0.369625 9.91382 0.00119887 -3.1303 -18.6444 -3.10976 -5.45201 24.0503 10.0999 -3.4692 1.73707 0.202712 1.21098 31.0532 -9.57949 
-4.81663 104.144 -10.6218 -1.53368 -0.176439 175.751 2.85897 -19.942 0.903377 -11.2066 71.5373 -1.66617 0.810503 -8.3845 -0.150366 0.163171 5.9518 0.623141 2.56908 2.69034 -0.953222 -4.02326 -4.01986 -0.0710968 -1.88489 -8.21064 5.6466 1.2424e-017 0 -7.95139e-016 -78.2758 -30.8001 -2.28566 -24.7717 14.3068 -13.1159 0.368473 9.90896 -0.00117926 -4.15797 0.231651 1.31622 95.3399 -30.9996 13.0474 12.9313 12.9251 3.50333 -0.369625 9.91382 0.00119887 -2.77212 -17.5907 -2.63124 -5.58027 24.142 9.61146 -3.3998 0.812775 0.171912 0.402033 30.5175 -8.86726 
-4.80272 104.221 -12.0929 -1.38614 -0.115469 175.734 3.81447 -22.2051 1.76163 -12.0804 72.2332 -1.09774 0.561965 -9.48526 -0.159048 -0.036651 6.28393 0.537361 2.20417 2.76765 -0.897516 -3.89443 -3.6209 -0.0519041 -1.93197 -8.00817 5.63943 2.48481e-017 9.93923e-017 1.59028e-015 -78.663 -29.4393 -4.05965 -24.8553 14.1198 -12.1978 0.368473 9.90896 -0.00117926 -3.75117 0.214999 0.658517 94.5122 -31.666 12.0498 12.9791 12.8685 3.06064 -0.369625 9.91382 0.00119887 -2.62312 -16.6706 -1.83507 -5.40574 24.4793 8.63593 -3.37975 -0.0850755 0.143443 -0.662476 29.131 -7.76517 
-4.77337 104.282 -13.5652 -1.2715 -0.0425954 175.814 4.59964 -24.2356 2.19219 -12.8753 72.1057 -0.800207 0.232666 -10.7149 -0.179029 -0.269391 6.50759 0.438501 1.7783 2.85168 -0.839034 -3.79992 -3.2733 -0.0368303 -1.9197 -7.68597 5.5173 -1.30452e-016 2.48481e-017 -7.95139e-016 -79.1014 -28.1506 -5.90807 -24.7742 13.9119 -11.176 0.368473 9.90896 -0.00117926 -3.28291 0.193711 -0.0262989 93.512 -32.4282 10.8923 13.0604 12.838 2.85647 -0.369625 9.91382 0.00119887 -2.56357 -15.7126 -1.19688 -5.21706 24.7317 7.74757 -3.3158 -0.907413 0.11739 -1.632 27.6441 -6.70953 
-4.72365 104.404 -15.0403 -1.18358 0.0790079 175.971 5.19832 -25.8935 2.42978 -12.5105 70.9743 -1.98355 -0.424312 -11.6597 -0.231971 -1.27927 6.21185 0.0267348 1.30934 2.89281 -0.790285 -3.78556 -2.93077 -0.0208739 -1.75465 -7.19471 5.19136 -4.16205e-016 0 -0 -79.5961 -27.1249 -7.76458 -24.3743 13.7331 -10.2348 0.368473 9.90896 -0.00117926 -2.57873 0.180336 -0.58455 92.1179 -33.317 9.50836 13.2442 12.8484 3.02359 -0.369625 9.91382 0.00119887 -2.52765 -14.4984 -1.36842 -5.36514 24.4845 7.71998 -3.07472 -1.54479 0.0962574 -2.46409 26.5337 -5.86383 
-4.66086 104.526 -16.5122 -1.08759 0.211077 176.237 5.62952 -27.2679 2.4846 -11.6151 69.0334 -3.77178 -1.04949 -12.4961 -0.288053 -2.38537 5.71784 -0.423207 0.833813 2.91191 -0.742229 -3.76649 -2.58887 -0.007329 -1.53067 -6.69348 4.73188 -3.66509e-016 -9.93923e-017 -0 -80.1314 -26.1607 -9.6331 -23.8768 13.5936 -9.4612 0.368473 9.90896 -0.00117926 -1.82339 0.161897 -1.13964 90.5969 -34.2807 8.03451 13.4132 12.8773 3.35559 -0.369625 9.91382 0.00119887 -2.45573 -13.2367 -1.70233 -5.56348 24.1384 7.84223 -2.85465 -2.12259 0.0779496 -2.71504 25.6904 -5.48358 
-4.58901 104.618 -17.9714 -0.914402 0.316551 176.656 5.96797 -28.4075 2.44581 -10.4394 66.3909 -5.7273 -1.29149 -13.275 -0.320154 -3.05901 5.1619 -0.705625 0.405698 2.91171 -0.684845 -3.63605 -2.22109 0.00077974 -1.33001 -6.35386 4.15577 3.10601e-016 -9.93923e-017 -0 -80.6733 -25.0829 -11.4963 -23.477 13.5317 -9.04318 0.368473 9.90896 -0.00117926 -1.12882 0.126408 -1.79647 89.1504 -35.3116 6.59644 13.4472 12.9065 3.68029 -0.369625 9.91382 0.00119887 -2.29024 -12.0877 -1.70918 -5.58864 23.9918 7.56112 -2.89074 -2.75878 0.0610622 -1.6466 25.3858 -6.13309 
-4.51319 104.672 -19.4304 -0.760529 0.42855 177.161 6.11924 -29.2852 2.3442 -9.119 63.1271 -7.71781 -1.36661 -13.9597 -0.340584 -3.5559 4.68958 -0.916925 -0.00952217 2.89703 -0.633581 -3.50538 -1.84735 0.00764532 -1.11551 -6.09119 3.52967 6.21202e-018 0 -0 -81.2018 -24.0161 -13.3187 -23.1078 13.52 -8.86025 0.368473 9.90896 -0.00117926 -0.541233 0.0834501 -2.45689 87.8036 -36.3257 5.18637 13.424 12.9391 4.02777 -0.369625 9.91382 0.00119887 -2.11658 -10.9745 -1.6071 -5.60376 23.9238 7.17556 -2.93975 -3.36624 0.0460675 -0.122668 24.9454 -7.04636 
-4.44272 104.661 -20.8972 -0.715568 0.58444 177.69 6.0066 -29.8749 2.26763 -7.62917 59.3452 -9.69305 -1.39704 -14.4909 -0.354552 -3.95392 4.58021 -1.08439 -0.442919 2.87701 -0.600547 -3.45905 -1.46728 0.016853 -0.863006 -5.86993 2.93394 -2.98177e-016 0 -1.19271e-015 -81.7069 -23.0331 -15.0609 -22.7613 13.5444 -8.87398 0.368473 9.90896 -0.00117926 -0.20227 0.0368661 -3.06562 86.7194 -37.2174 3.85069 13.3881 12.9754 4.39408 -0.369625 9.91382 0.00119887 -2.00332 -9.86734 -1.45118 -5.72723 23.9205 6.83313 -2.78314 -3.86707 0.0334022 1.25485 23.4927 -7.57666 
-4.36886 104.611 -22.3764 -0.732323 0.734405 178.265 5.68597 -30.2215 2.15036 -6.16598 55.1159 -11.5329 -1.31514 -14.9877 -0.356409 -4.24959 4.56809 -1.20991 -0.851013 2.8415 -0.585736 -3.47042 -1.11525 0.0271874 -0.620715 -5.71598 2.34429 -5.46658e-016 -1.98785e-016 -3.97569e-016 -82.1767 -22.1143 -16.7345 -22.4441 13.5951 -9.0287 0.368473 9.90896 -0.00117926 0.0641652 -0.00811426 -3.59896 85.7467 -38.0486 2.58541 13.3196 13.0059 4.70908 -0.369625 9.91382 0.00119887 -1.92104 -8.78581 -1.23516 -5.86122 23.962 6.43156 -2.58183 -4.35165 0.021781 2.44424 21.9334 -7.95126 
-4.282 104.542 -23.8785 -0.79934 0.826903 178.892 5.17015 -30.3574 2.00756 -4.67183 50.5191 -13.3972 -1.02557 -15.6345 -0.33572 -4.43152 4.46124 -1.28807 -1.20411 2.77698 -0.598205 -3.5612 -0.843874 0.0388338 -0.421681 -5.6552 1.77088 7.20594e-016 0 -1.98785e-016 -82.5825 -21.2823 -18.3398 -22.1472 13.6544 -9.24597 0.368473 9.90896 -0.00117926 0.439686 -0.04536 -4.01399 84.7324 -38.8567 1.3912 13.2144 13.0198 4.88948 -0.369625 9.91382 0.00119887 -1.86272 -7.75707 -0.915711 -5.92387 24.0425 5.86384 -2.42819 -4.92278 0.00954083 3.20521 21.2308 -8.26244 
